# xmcd
#
# Track frame offsets:
#	150
#	13611
#	29760
#	42934
#	58865
#	75872
#	91592
#	104952
#	121957
#	141155
#	155074
#	169460
#
# Disc length: 2455 seconds
#
# Revision: 1
# Processed by: cddbd v1.5.2PL0 Copyright (c) Steve Scherf et al.
# Submitted via: audiograbber 1.83.01
#
DISCID=a109950c
DTITLE=King Calaway - Rivers
DYEAR=2019
DGENRE=Country
TTITLE0=No Matter What
TTITLE1=More Than I Do
TTITLE2=Rivers
TTITLE3=Obvious
TTITLE4=Missing You
TTITLE5=Driver's Seat
TTITLE6=Grow Old
TTITLE7=I Do
TTITLE8=Picture of the Way You Are
TTITLE9=World for Two
TTITLE10=Love the One You're With
TTITLE11=I Did
EXTD=
EXTT0=
EXTT1=
EXTT2=
EXTT3=
EXTT4=
EXTT5=
EXTT6=
EXTT7=
EXTT8=
EXTT9=
EXTT10=
EXTT11=
PLAYORDER=
